<svg xmlns="http://www.w3.org/2000/svg" xmlns:xlink="http://www.w3.org/1999/xlink" width="52.002" height="41.235" viewBox="0 0 52.002 41.235">
  <defs>
    <clipPath id="clip-path">
      <rect id="Rectangle_5049" data-name="Rectangle 5049" width="52.002" height="41.235" transform="translate(0 0)" fill="none"/>
    </clipPath>
  </defs>
  <g id="Group_7759" data-name="Group 7759" transform="translate(0 0)">
    <g id="Group_7758" data-name="Group 7758" clip-path="url(#clip-path)">
      <path id="Path_8866" data-name="Path 8866" d="M21.606,0l1.465,2.417Q10.621,9.009,10.62,14.868q0,2.489,4.688,4.907a17.362,17.362,0,0,1,5.823,4.4,9.285,9.285,0,0,1,1.647,5.713A10.927,10.927,0,0,1,19.445,37.9,10.846,10.846,0,0,1,11.5,41.235a10.042,10.042,0,0,1-8.314-4.1Q0,33.03,0,26.44a24.721,24.721,0,0,1,8.2-18.6A32.446,32.446,0,0,1,13.66,3.7,62.694,62.694,0,0,1,21.606,0M50.537,0,52,2.417Q39.551,9.08,39.551,14.868a3.43,3.43,0,0,0,1.025,2.454,15.245,15.245,0,0,0,3.662,2.453,16.265,16.265,0,0,1,5.75,4.358,9.345,9.345,0,0,1,1.721,5.75,10.958,10.958,0,0,1-3.3,8.056,10.785,10.785,0,0,1-7.91,3.3,10.107,10.107,0,0,1-8.386-4.1q-3.187-4.1-3.186-10.694a24.57,24.57,0,0,1,2.086-9.961,26.571,26.571,0,0,1,6.19-8.642Q41.969,3.442,50.537,0" fill="#00849b"/>
    </g>
  </g>
</svg>
