<svg id="Group_7519" data-name="Group 7519" xmlns="http://www.w3.org/2000/svg" xmlns:xlink="http://www.w3.org/1999/xlink" width="184.933" height="188.573" viewBox="0 0 184.933 188.573">
  <defs>
    <clipPath id="clip-path">
      <rect id="Rectangle_3308" data-name="Rectangle 3308" width="184.933" height="188.573" fill="none"/>
    </clipPath>
  </defs>
  <g id="Group_4933" data-name="Group 4933" clip-path="url(#clip-path)">
    <path id="Path_6045" data-name="Path 6045" d="M95.831,91.837,52.625,73.2" transform="translate(-8.487 -12.31)" fill="none" stroke="#a2d8d3" stroke-miterlimit="2.613" stroke-width="0.683"/>
    <path id="Path_6046" data-name="Path 6046" d="M120.024,91.4l3.968-4.176" transform="translate(-19.357 -14.669)" fill="none" stroke="#a2d8d3" stroke-miterlimit="2.613" stroke-width="0.683"/>
    <path id="Path_6047" data-name="Path 6047" d="M114.034,87.8c.14-1.651.713-8.41.762-8.978" transform="translate(-18.391 -13.256)" fill="none" stroke="#a2d8d3" stroke-miterlimit="2.613" stroke-width="0.683"/>
    <path id="Path_6048" data-name="Path 6048" d="M114.861,88.139l1.331-7.783" transform="translate(-18.524 -13.514)" fill="none" stroke="#a2d8d3" stroke-miterlimit="2.613" stroke-width="0.683"/>
    <path id="Path_6049" data-name="Path 6049" d="M115.677,88.595c.416-1.6,1.652-6.366,1.652-6.366" transform="translate(-18.656 -13.829)" fill="none" stroke="#a2d8d3" stroke-miterlimit="2.613" stroke-width="0.683"/>
    <path id="Path_6050" data-name="Path 6050" d="M116.476,88.9,118.6,82.88m-1.469,6.273c.681-1.513,2.355-5.12,2.065-4.586m-1.438,4.89c.807-1.45,2.769-4.982,2.769-4.982" transform="translate(-18.785 -13.939)" fill="none" stroke="#a2d8d3" stroke-miterlimit="2.613" stroke-width="0.683"/>
    <path id="Path_6051" data-name="Path 6051" d="M118.715,90.179l3.447-5.13" transform="translate(-19.146 -14.304)" fill="none" stroke="#a2d8d3" stroke-miterlimit="2.613" stroke-width="0.683"/>
    <path id="Path_6052" data-name="Path 6052" d="M119.237,90.595l4.392-5.478m-3.37,6.421c-4.08,3.771-.911.676,5.541-4.672" transform="translate(-19.101 -14.315)" fill="none" stroke="#a2d8d3" stroke-miterlimit="2.613" stroke-width="0.683"/>
    <path id="Path_6053" data-name="Path 6053" d="M121.144,92.1l6.379-4.78m-5.978,5.347c1.413-.884,6.514-3.7,13.06-7.35" transform="translate(-19.537 -14.349)" fill="none" stroke="#a2d8d3" stroke-miterlimit="2.613" stroke-width="0.683"/>
    <path id="Path_6054" data-name="Path 6054" d="M122.041,92.091c1.431-.593,14.523-7.491,27.78-13.785" transform="translate(-19.682 -13.17)" fill="none" stroke="#a2d8d3" stroke-miterlimit="2.613" stroke-width="0.683"/>
    <path id="Path_6055" data-name="Path 6055" d="M122.4,93.342l27.37-11.32M122.645,93.99l26.276-8.379m-26.086,9.046,26-5.961" transform="translate(-19.74 -13.794)" fill="none" stroke="#a2d8d3" stroke-miterlimit="2.613" stroke-width="0.683"/>
    <path id="Path_6056" data-name="Path 6056" d="M123.076,97.285,148.834,93.6" transform="translate(-19.849 -15.742)" fill="none" stroke="#a2d8d3" stroke-miterlimit="2.613" stroke-width="0.683"/>
    <path id="Path_6057" data-name="Path 6057" d="M123.166,98.556l25.533-1.5" transform="translate(-19.864 -16.323)" fill="none" stroke="#a2d8d3" stroke-miterlimit="2.613" stroke-width="0.683"/>
    <path id="Path_6058" data-name="Path 6058" d="M123.185,99.691l25.3.622" transform="translate(-19.867 -16.766)" fill="none" stroke="#a2d8d3" stroke-miterlimit="2.613" stroke-width="0.683"/>
    <path id="Path_6059" data-name="Path 6059" d="M123.135,100.523l25.015,2.709" transform="translate(-19.859 -16.906)" fill="none" stroke="#a2d8d3" stroke-miterlimit="2.613" stroke-width="0.683"/>
    <path id="Path_6060" data-name="Path 6060" d="M123.015,101.347l24.668,4.776" transform="translate(-19.839 -17.045)" fill="none" stroke="#a2d8d3" stroke-miterlimit="2.613" stroke-width="0.683"/>
    <path id="Path_6061" data-name="Path 6061" d="M122.826,102.159l24.258,6.833" transform="translate(-19.809 -17.181)" fill="none" stroke="#a2d8d3" stroke-miterlimit="2.613" stroke-width="0.683"/>
    <path id="Path_6062" data-name="Path 6062" d="M122.57,102.952l23.779,8.9" transform="translate(-19.767 -17.314)" fill="none" stroke="#a2d8d3" stroke-miterlimit="2.613" stroke-width="0.683"/>
    <path id="Path_6063" data-name="Path 6063" d="M122.248,103.72c1.508.713,22.928,11.881,22.928,11.881" transform="translate(-19.715 -17.444)" fill="none" stroke="#a2d8d3" stroke-miterlimit="2.613" stroke-width="0.683"/>
    <path id="Path_6064" data-name="Path 6064" d="M121.792,104.459l22.6,13.094m-22.975-12.508L143.307,120.3" transform="translate(-19.582 -17.568)" fill="none" stroke="#a2d8d3" stroke-miterlimit="2.613" stroke-width="0.683"/>
    <path id="Path_6065" data-name="Path 6065" d="M120.915,105.827c1.282,1.063,21.2,17.135,21.2,17.135" transform="translate(-19.501 -17.798)" fill="none" stroke="#a2d8d3" stroke-miterlimit="2.613" stroke-width="0.683"/>
    <path id="Path_6066" data-name="Path 6066" d="M120.357,106.447l19.967,19.613" transform="translate(-19.411 -17.902)" fill="none" stroke="#a2d8d3" stroke-miterlimit="2.613" stroke-width="0.683"/>
    <path id="Path_6067" data-name="Path 6067" d="M119.166,107.018l18.676,21.715m-19.224-21.285L135.8,131.2m-17.759-23.368c.856,1.424,15.643,25.985,15.643,25.985m-16.255-25.651c.666,1.432,12.821,27.241,13.524,27.734m-14.163-27.452,12.072,30.839m-12.731-30.612c.471,1.59,9.533,32.113,9.533,32.113" transform="translate(-18.728 -17.998)" fill="none" stroke="#a2d8d3" stroke-miterlimit="2.613" stroke-width="0.683"/>
    <path id="Path_6068" data-name="Path 6068" d="M115.318,109.216c.336,1.623,6.788,32.814,7.113,34.388" transform="translate(-18.598 -18.368)" fill="none" stroke="#a2d8d3" stroke-miterlimit="2.613" stroke-width="0.683"/>
    <path id="Path_6069" data-name="Path 6069" d="M114.363,109.354c.2,1.645,4.433,36.97,4.433,36.97m-5.13-36.913c.058,1.656,1.339,38.6,1.339,38.6" transform="translate(-18.331 -18.391)" fill="none" stroke="#a2d8d3" stroke-miterlimit="2.613" stroke-width="0.683"/>
    <path id="Path_6070" data-name="Path 6070" d="M112.445,109.422c-.083,1.655-2.02,40.353-2.02,40.353" transform="translate(-17.809 -18.403)" fill="none" stroke="#a2d8d3" stroke-miterlimit="2.613" stroke-width="0.683"/>
    <path id="Path_6071" data-name="Path 6071" d="M110.872,109.351c-.222,1.642-5.884,43.427-5.884,43.427" transform="translate(-16.932 -18.391)" fill="none" stroke="#a2d8d3" stroke-miterlimit="2.613" stroke-width="0.683"/>
    <path id="Path_6072" data-name="Path 6072" d="M110.286,109.21c-.361,1.618-4.223,18.95-4.66,20.908" transform="translate(-17.035 -18.367)" fill="none" stroke="#a2d8d3" stroke-miterlimit="2.613" stroke-width="0.683"/>
    <path id="Path_6073" data-name="Path 6073" d="M109.314,109c-5.509,17.567-4.436,14.147-5.524,17.614" transform="translate(-16.739 -18.332)" fill="none" stroke="#a2d8d3" stroke-miterlimit="2.613" stroke-width="0.683"/>
    <path id="Path_6074" data-name="Path 6074" d="M107.863,108.6l-6.379,15.588m5.741-15.872-7.138,13.955m6.527-14.291-7.727,12.4" transform="translate(-15.948 -18.16)" fill="none" stroke="#a2d8d3" stroke-miterlimit="2.613" stroke-width="0.683"/>
    <path id="Path_6075" data-name="Path 6075" d="M105.447,107.433l-8.7,11.646M104.9,107l-9.647,10.877" transform="translate(-15.362 -17.995)" fill="none" stroke="#a2d8d3" stroke-miterlimit="2.613" stroke-width="0.683"/>
    <path id="Path_6076" data-name="Path 6076" d="M101.976,105.219,91.079,115.6m10.431-10.9C100.212,105.746,88.7,115,88.7,115m12.385-10.854L85.947,114.367m14.77-10.8-17.148,9.59m16.914-11.377c7.5-3.419,16.594-5.985-20.217,10.441" transform="translate(-12.945 -16.69)" fill="none" stroke="#a2d8d3" stroke-miterlimit="2.613" stroke-width="0.683"/>
    <path id="Path_6077" data-name="Path 6077" d="M99.568,102.927l-22.774,8.129" transform="translate(-12.385 -17.31)" fill="none" stroke="#a2d8d3" stroke-miterlimit="2.613" stroke-width="0.683"/>
    <path id="Path_6078" data-name="Path 6078" d="M98.691,102.133l-26.011,6.9" transform="translate(-11.721 -17.177)" fill="none" stroke="#a2d8d3" stroke-miterlimit="2.613" stroke-width="0.683"/>
    <path id="Path_6079" data-name="Path 6079" d="M96.622,99.618c-1.644.293-27.866,4.6-27.866,4.6m27.768-5.284-28.73,2.673m28.689-3.366-31.794.3M96.5,97.548,62.16,95.009m34.418,1.85L60.821,91.195" transform="translate(-9.809 -15.337)" fill="none" stroke="#a2d8d3" stroke-miterlimit="2.613" stroke-width="0.683"/>
    <path id="Path_6080" data-name="Path 6080" d="M95.071,94.023,53.587,83.852l-.662-.162m42.337,9.667-44.63-14.98" transform="translate(-8.166 -13.181)" fill="none" stroke="#a2d8d3" stroke-miterlimit="2.613" stroke-width="0.683"/>
    <path id="Path_6081" data-name="Path 6081" d="M96.523,90.373,55.046,68.2" transform="translate(-8.878 -11.471)" fill="none" stroke="#a2d8d3" stroke-miterlimit="2.613" stroke-width="0.683"/>
    <path id="Path_6082" data-name="Path 6082" d="M97.332,88.212,57.876,62.671M97.735,87.646,60.578,58.912" transform="translate(-9.334 -9.908)" fill="none" stroke="#a2d8d3" stroke-miterlimit="2.613" stroke-width="0.683"/>
    <path id="Path_6083" data-name="Path 6083" d="M99.283,86.4,64.687,54.68" transform="translate(-10.432 -9.196)" fill="none" stroke="#a2d8d3" stroke-miterlimit="2.613" stroke-width="0.683"/>
    <path id="Path_6084" data-name="Path 6084" d="M100.409,84.651,68.618,50.162M100.942,84.2C99.921,82.89,72.179,47.19,72.179,47.19M101.509,83.8,80.353,51.253c-1.016-1.563-.238-.367-.238-.367m22,32.559c-.784-1.463-16.393-30.254-16.393-30.254m17.021,29.951L91.287,56.627h0m12.1,26.265-7.65-22.84M104.061,82.7c-.393-1.61-4.767-19.6-4.767-19.6m5.452,19.46c-.254-1.638-2.4-16.5-2.4-16.5" transform="translate(-11.066 -7.936)" fill="none" stroke="#a2d8d3" stroke-miterlimit="2.613" stroke-width="0.683"/>
    <path id="Path_6085" data-name="Path 6085" d="M112.441,87.111c-.114-1.653-.408-12.367-.408-12.367m1.106,12.345c.025-1.657.054-10.458.054-10.458" transform="translate(-18.068 -12.57)" fill="none" stroke="#a2d8d3" stroke-miterlimit="2.613" stroke-width="0.683"/>
    <path id="Path_6086" data-name="Path 6086" d="M111.618,89.585a8.081,8.081,0,1,1-8.277,8.079,8.18,8.18,0,0,1,8.277-8.079" transform="translate(-16.666 -15.066)" fill="#fff" fill-rule="evenodd"/>
    <ellipse id="Ellipse_3" data-name="Ellipse 3" cx="8.277" cy="8.079" rx="8.277" ry="8.079" transform="translate(86.674 74.518)" fill="none" stroke="#a2d8d3" stroke-miterlimit="2.613" stroke-width="0.216"/>
    <path id="Path_6087" data-name="Path 6087" d="M136.43,39.453l0-.012c1.7-4.831,3.669-6.082,5.905-8.342l.063-.064c-.3,1.564-.537,3.141-.788,4.7-.457,2.835-2.8,2.974-5.183,3.716m2.506-16.264c.426-2.881.881-5.781,1.423-8.728.944-5.128,3.808-10.313,9.127-11.785C153.161,1.659,157.492,2.364,161,.4c2.78-1.556,1.372,1.831.479,2.827-2.851,3.174-6.613,5.933-9.891,8.856a23.4,23.4,0,0,0-6.609,9.477c-1.05.209-2.106.391-2.676.547a29.649,29.649,0,0,0-3.363,1.078m2.6,16.225c-1.133,1.6-1.254,6.022-1.531,11.21-.309,5.792-.8,12.45-.788,17.516-.271,9.524-1.31,18.882-5.323,27.79a82.174,82.174,0,0,1-15.681,23.3,71.035,71.035,0,0,1-17.369,13.116c-6.812,3.713-13.759,7.091-20.687,10.251-1.194.544-2.382.994-3.617,1.439-2.6.847-.872-.17-.006-.6,1.136-.571,2.2-1.2,3.308-1.81,1.253-.7,2.541-1.387,3.748-2.146,5.933-3.733,11.7-7.84,17.313-12.206,11.664-9.072,21.164-19.465,25.8-31.105,5.124-12.877,4.491-24.242,5.624-36.187.415-4.371.8-7.852,2.178-10.725,1.776-3.695,5.056-6.471,7.034-9.846M125.5,69.823c-3.172,3.963-6.984,7.2-10.8,6.576a12.051,12.051,0,0,1-8.049-4.56,71.016,71.016,0,0,0-5.417-6.372c-3.459-3.628-8.353-6.631-15.771-8.4a129.506,129.506,0,0,0-21.388-3.133c-1.555-.106-3.149-.154-4.739-.2-1.5-.043-3.094.007-4.552-.184-2.822-.368-2.1,1.373-.46,3.923,1.722,2.685,3.835,5.128,5.715,7.7a13.962,13.962,0,0,1,2.7,5.547C63.805,75.182,64.479,80,66.17,84.639c2.234,6.129,7.4,9.521,13.717,12.018,5.9,2.331,12.651,4.34,18.07,7.449,7.591,4.356,8.86,11.869-3.118,23.707A97.907,97.907,0,0,1,75.69,142.576a98.366,98.366,0,0,1-8.957,4.73c-1.3.6-1.461.376-.835-.157a8.5,8.5,0,0,1,1.314-.83c2.629-1.515,5.408-3.059,7.837-4.79a125.372,125.372,0,0,0,10.513-7.785,19.713,19.713,0,0,0,5.031-6.863A27.988,27.988,0,0,0,92.742,113.1a23.069,23.069,0,0,0-6.686-11.982,10.416,10.416,0,0,0-4.694-2.274c-8.57-2.035-14.132-2.495-19.261-10.1-6.509-3.45-11.422-7.878-12.682-15.126C48.3,67.207,47,60.975,44.154,55.156c-2.234-4.56-7.336-9-9.8-13.568-.313-.579-2.319-3.946-.987-4.22,17.077-3.514,32.643-.363,48.171,8.029A52.219,52.219,0,0,1,96.559,57.891c.921,1.145,1.712,2.322,2.475,3.477a43.8,43.8,0,0,0,2.951,4.147,20.413,20.413,0,0,0,7.069,4.95c3.844,1.74,7.419,2.133,11.322.508a14.436,14.436,0,0,0,5.638-4.179,11.932,11.932,0,0,0,1.62-3.127c-.607,2.152-.774,4.158-2.136,6.155" transform="translate(-5.309 0)" fill="#5ebade" fill-rule="evenodd"/>
    <path id="Path_6088" data-name="Path 6088" d="M156.335,45.725l0-.013c1.7-4.83,3.669-6.081,5.9-8.341l.064-.064c-.3,1.564-.537,3.141-.788,4.7-.457,2.835-2.8,2.974-5.182,3.716" transform="translate(-25.213 -6.274)" fill="#5ebade" fill-rule="evenodd"/>
    <path id="Path_6089" data-name="Path 6089" d="M103.17,68.574l-.148-.141L103,68.415l-.15-.14-.012-.011-.144-.133-.031-.028-.137-.124-.033-.029-.14-.124-.027-.023-.15-.131-.011-.009q-.507-.438-1.051-.86l-.008-.006-.168-.129-.02-.015-.158-.119-.037-.028-.149-.11-.044-.033-.156-.113-.037-.026-.151-.108-.058-.041-.138-.1-.071-.048-.128-.088-.08-.054-.131-.088-.062-.041-.149-.1-.038-.024q-.389-.253-.793-.5l-.012-.007-.175-.106L98.31,64.9l-.144-.084-.091-.053-.131-.075-.091-.052-.141-.079-.09-.05-.138-.076-.1-.055-.133-.072-.1-.054-.131-.069-.117-.062-.126-.065-.1-.053-.139-.071-.107-.053-.139-.069-.095-.046c-.051-.025-.1-.051-.154-.075h0c-.08-.039-.161-.077-.242-.116h0l-.036-.017-.217-.1-.106-.048-.148-.067-.138-.062-.119-.052-.133-.058-.142-.061-.114-.049-.145-.062-.137-.057-.135-.056-.127-.051-.152-.062-.127-.05-.145-.057-.133-.052-.144-.055-.138-.052-.149-.056-.13-.048-.169-.062-.119-.042-.242-.085-.041-.015-.009,0-.289-.1-.061-.021-.236-.079-.1-.032-.2-.066-.119-.037L91.21,61.8l-.138-.043-.16-.049-.155-.047-.159-.047-.14-.042-.179-.052-.139-.04-.179-.05-.132-.037-.191-.053L89.5,61.3l-.169-.045-.153-.041-.2-.052-.121-.031-.256-.065-.071-.017-.339-.082A129.416,129.416,0,0,0,66.8,57.834c-1.554-.106-3.149-.153-4.739-.2-1.5-.043-3.094.007-4.552-.184-2.822-.368-2.094,1.374-.46,3.923,1.722,2.685,3.835,5.128,5.715,7.7a13.973,13.973,0,0,1,2.7,5.547c1.067,4.457,1.74,9.271,3.432,13.914,2.233,6.129,7.4,9.522,13.717,12.018,5.9,2.332,12.65,4.34,18.07,7.45,7.591,4.355,8.86,11.868-3.118,23.707A97.891,97.891,0,0,1,78.42,146.474a98.271,98.271,0,0,1-8.958,4.73c-1.3.6-1.461.376-.835-.157a8.527,8.527,0,0,1,1.315-.83c2.628-1.515,5.407-3.059,7.836-4.79l.1-.072.064-.045.038-.027,0,0,.123-.087.076-.054.09-.063.012-.008.1-.072.051-.037.051-.035.1-.072.013-.009.089-.062.078-.055.024-.017.1-.072.04-.028.062-.043.1-.072h0l.1-.071.066-.047.037-.025.1-.072.028-.019.075-.052.092-.064.011-.007.1-.072.054-.037.049-.034.1-.072.015-.011.088-.062.081-.056.023-.016.1-.072.041-.029.062-.043.1-.072,0,0,.1-.07.068-.047.035-.024.1-.072.029-.02.074-.052.095-.066.009-.007.1-.072.056-.039.048-.033.1-.072.018-.012.086-.061.082-.057.021-.016.1-.072.044-.03.06-.042.1-.072.005,0,.1-.069.069-.048.034-.024.1-.072.031-.022.072-.052.1-.067.008-.005.1-.073.057-.04.046-.033.1-.072.019-.013.084-.06.083-.059.02-.014.1-.073.044-.032.059-.042.027-.02.16-.114.018-.013.07-.051.032-.023.1-.073.033-.023.07-.051.1-.07.007,0,.1-.074.1-.074.1-.075.095-.069.018-.012.091-.067.1-.075.005,0,.1-.071.014.007q.418-.317.827-.635l.049-.037.1-.076L85.4,140c.912-.7,1.8-1.412,2.655-2.156l.046-.041.047-.041.046-.041.092-.082,0,0,0,0,.074-.066,0,0,0,0,0,0,0,0,0,0,0,0,.007-.007,0,0,0,0,0,0,0,0,0,0,0,0,0,0,0,0,0,0,0,0,0,0,0,0,0,0,0,0,0,0,0,0,0,0,0,0,0,0,0,0,0,0,0,0,.008-.007,0,0,.008-.007,0,0,0,0,0,0,0,0,0,0,0,0,0,0c8.948-7.768,13.542-15.642,12.686-22.25-.85-6.562-6.362-10-15.144-11.824a10.889,10.889,0,0,0-1.978-.614c-8.644-1.391-14.622-2.658-19-9.72-.089-.135-.175-.27-.258-.4-2-4.239-2.747-9.109-3.419-14.038-.516-3.784-.309-7.524-1.436-10.891a15.818,15.818,0,0,0-3.27-4.522,35.1,35.1,0,0,1-4.017-4.986c-1.988-2.858-3.4-5.55-2.643-6.863.252-.438.741-.242,1.767-.321.933-.071,1.855-.309,2.789-.362,10.98-.6,21.635.653,31.459,4.792C93.216,58.443,98.616,63.567,103.17,68.574Zm24.708,7.447a25.875,25.875,0,0,1-4.355,6.569,10.916,10.916,0,0,1-3,2.467c-2.862,1.431-4.88.19-7.852-4.524q-.9-1.421-1.838-2.777c-.117-.168-1.431-1.961-1.548-2.127l.018.014.071.094a12.055,12.055,0,0,0,8.049,4.56c3.818.621,7.629-2.614,10.8-6.576,1.363-2,1.529-4,2.136-6.155-.03.091-.062.181-.094.272l.335-1.127c.637-2.668.949-5.514,1.4-8.591.427-2.924.611-5.913.94-8.693.662-5.582,1.259-12.541,3.673-17.679,1.737-3.7,4.626-4.707,8.414-5.74a52.427,52.427,0,0,0,5.247-1.217,25.072,25.072,0,0,0,3.563-1.607c1.075.155,1.067,1.762-1.362,4.237-3.4,3.739-5.614,5.76-7.41,7.575-2.24,2.263-4.213,3.514-5.913,8.365a6.284,6.284,0,0,0-2.329,1c-1.661,1.182-1.853,2.425-2.181,4.276a160.868,160.868,0,0,1-3.9,18.743,38.913,38.913,0,0,1-2.867,8.644m1.779-6.808.6-1.34a11.166,11.166,0,0,1-.6,1.34M84.991,144.18c.45-.26.9-.524,1.332-.8,5.933-3.733,11.7-7.84,17.314-12.206,11.664-9.072,21.164-19.465,25.8-31.1,5.124-12.878,4.491-24.243,5.625-36.187.414-4.371.8-7.851,2.177-10.725a16.089,16.089,0,0,1,.775-1.417c-.129,1.922-.195,3.852-.3,5.786-.522,9.259-.272,18.586-.881,27.857a65.306,65.306,0,0,1-5.2,21.574c-3.126,7.393-8.706,13.518-18.047,19.911a281.055,281.055,0,0,1-28.59,17.31" transform="translate(-8.038 -3.899)" fill="#2e6295" fill-rule="evenodd"/>
    <path id="Path_6090" data-name="Path 6090" d="M94.124,120.074l-.112-.058.112.058" transform="translate(-15.162 -20.184)" fill="#1a1818" fill-rule="evenodd"/>
    <path id="Path_6091" data-name="Path 6091" d="M94.128,120.069l-.112-.058.112.058" transform="translate(-15.162 -20.183)" fill="#1a1818" fill-rule="evenodd"/>
    <path id="Path_6092" data-name="Path 6092" d="M172.46,186.668l5.411,22.754H175.2l-1.036-4.673h-5.729l-1,4.673H164.76l5.337-22.754Zm1.307,16.272-1.788-8.035a35.75,35.75,0,0,1-.771-5.355,44.387,44.387,0,0,1-.7,5.355l-1.686,8.035Z" transform="translate(-26.572 -31.394)" fill="#2e6295" fill-rule="evenodd"/>
    <path id="Path_6093" data-name="Path 6093" d="M43.727,186.2v23.151H40.4v-1.823a5.781,5.781,0,0,1-4.471,2.18,4.9,4.9,0,0,1-4.74-2.819q-1.423-2.824-1.417-9.336,0-6.146,1.436-8.944a4.734,4.734,0,0,1,2.02-2.018,6.229,6.229,0,0,1,3.035-.749,5.362,5.362,0,0,1,2.24.424,6.27,6.27,0,0,1,1.9,1.5V186.2Zm-6.721,2.044a3.044,3.044,0,0,0-2.938,2.1,18.732,18.732,0,0,0-.91,6.866q0,5.736.824,7.921a3.121,3.121,0,0,0,5.935.052c.546-1.423.824-4.021.824-7.777,0-3.34-.278-5.7-.833-7.061a3.027,3.027,0,0,0-2.9-2.1" transform="translate(-4.801 -31.256)" fill="#2e6295" fill-rule="evenodd"/>
    <path id="Path_6094" data-name="Path 6094" d="M101.037,186.275,96.06,209.427H93.019l-5.141-23.152H90.8l2.967,13.868c.37,1.95.642,3.6.815,4.966.132-1.261.387-2.9.774-4.889l2.753-13.945Z" transform="translate(-14.172 -31.328)" fill="#2e6295" fill-rule="evenodd"/>
    <path id="Path_6095" data-name="Path 6095" d="M151.134,209.564h-3.119V192.417a5.37,5.37,0,0,0-.663-3.015,2.412,2.412,0,0,0-2.134-.945,3.387,3.387,0,0,0-2.035.664,3.163,3.163,0,0,0-1.237,1.679,14.594,14.594,0,0,0-.385,3.969v14.8h-3.12V192.493a7.152,7.152,0,0,0-.394-2.743,2.155,2.155,0,0,0-2.18-1.294,3.409,3.409,0,0,0-2.967,1.473,4.59,4.59,0,0,0-.734,1.866,23.242,23.242,0,0,0-.179,3.415v14.353h-3.12V186.412h3.12v1.941a6.351,6.351,0,0,1,4.688-2.3,4.765,4.765,0,0,1,4.508,2.725,8.11,8.11,0,0,1,2.331-2.1,5.578,5.578,0,0,1,2.7-.622,4.488,4.488,0,0,1,3.954,1.72,8.092,8.092,0,0,1,.968,4.566Z" transform="translate(-20.783 -31.291)" fill="#2e6295" fill-rule="evenodd"/>
    <path id="Path_6096" data-name="Path 6096" d="M192.215,187.344v3.568q-1.95-2.363-3.977-2.359a2.814,2.814,0,0,0-2.118.851,2.971,2.971,0,0,0-.827,2.173,3.792,3.792,0,0,0,.7,2.223,14.971,14.971,0,0,0,2.6,2.572,16.084,16.084,0,0,1,3.436,3.45,6.2,6.2,0,0,1,.861,3.374,6.449,6.449,0,0,1-1.516,4.37,6.028,6.028,0,0,1-4.752,2.146,7.227,7.227,0,0,1-4.374-1.585v-3.415Q184.492,207,186.422,207a3.245,3.245,0,0,0,2.445-1.021,3.608,3.608,0,0,0,.972-2.573,3.92,3.92,0,0,0-.654-2.266,17.852,17.852,0,0,0-2.763-2.785,16.871,16.871,0,0,1-3.239-3.494,5.886,5.886,0,0,1-.938-3.178,5.7,5.7,0,0,1,1.868-4.471,5.773,5.773,0,0,1,3.935-1.371,7.059,7.059,0,0,1,4.167,1.5" transform="translate(-29.391 -31.255)" fill="#2e6295" fill-rule="evenodd"/>
    <rect id="Rectangle_3303" data-name="Rectangle 3303" width="2.953" height="23.163" transform="translate(166.975 154.935)" fill="#2e6295"/>
    <path id="Path_6097" data-name="Path 6097" d="M25.247,186.26v2.718H21.338v20.445H18.385V188.977H14.65V186.26Z" transform="translate(-2.363 -31.325)" fill="#2e6295"/>
    <path id="Path_6098" data-name="Path 6098" d="M119.8,186.2v23.151h-3.332v-1.823a5.778,5.778,0,0,1-4.471,2.18,4.9,4.9,0,0,1-4.739-2.819q-1.422-2.824-1.417-9.336,0-6.146,1.436-8.944a4.734,4.734,0,0,1,2.02-2.018,6.232,6.232,0,0,1,3.035-.749,5.365,5.365,0,0,1,2.24.424,6.257,6.257,0,0,1,1.9,1.5V186.2Zm-6.722,2.044a3.044,3.044,0,0,0-2.938,2.1,18.751,18.751,0,0,0-.91,6.866q0,5.736.824,7.921a3.121,3.121,0,0,0,5.935.052c.544-1.423.822-4.021.822-7.777a20.844,20.844,0,0,0-.832-7.061,3.028,3.028,0,0,0-2.9-2.1" transform="translate(-17.07 -31.256)" fill="#2e6295" fill-rule="evenodd"/>
    <path id="Path_6099" data-name="Path 6099" d="M60.727,186.26v2.718H56.817v20.445H53.863V188.977H50.13V186.26Z" transform="translate(-8.085 -31.325)" fill="#2e6295"/>
    <path id="Path_6100" data-name="Path 6100" d="M83.387,186.26v2.718H79.478v20.445H76.525V188.977H72.791V186.26Z" transform="translate(-11.739 -31.325)" fill="#2e6295"/>
    <rect id="Rectangle_3304" data-name="Rectangle 3304" width="137.891" height="1.589" transform="translate(24.463 165.768)" fill="#fff"/>
    <path id="Path_6101" data-name="Path 6101" d="M27.426,199.284H15v1.59H27.434q-.01-.52-.01-1.066Z" transform="translate(-2.419 -33.516)" fill="#00a1ed" fill-rule="evenodd"/>
    <path id="Path_6102" data-name="Path 6102" d="M203.116,199.284H190.739a20.493,20.493,0,0,1,1.673,1.59h10.7Z" transform="translate(-30.761 -33.516)" fill="#00a1ed" fill-rule="evenodd"/>
    <rect id="Rectangle_3305" data-name="Rectangle 3305" width="12.579" height="1.589" transform="translate(172.355 165.768)" fill="#77d0f7"/>
    <rect id="Rectangle_3306" data-name="Rectangle 3306" width="12.579" height="1.589" transform="translate(0 165.768)" fill="#77d0f7"/>
    <rect id="Rectangle_3307" data-name="Rectangle 3307" width="6.808" height="2.337" transform="translate(141.495 171.282)" fill="#2e6295"/>
    <path id="Path_6103" data-name="Path 6103" d="M73.482,225.74h-.506v-4.322H75.4v.448H73.482v1.58h1.806v.448H73.482Zm9.868-2.165a2.374,2.374,0,0,1-.529,1.632,2.149,2.149,0,0,1-2.957.009,2.378,2.378,0,0,1-.525-1.647,2.351,2.351,0,0,1,.526-1.636,1.9,1.9,0,0,1,1.49-.581,1.863,1.863,0,0,1,1.466.591,2.367,2.367,0,0,1,.528,1.632m-3.473,0a2.034,2.034,0,0,0,.377,1.331,1.55,1.55,0,0,0,2.189,0,2.07,2.07,0,0,0,.37-1.334,2.034,2.034,0,0,0-.369-1.322,1.317,1.317,0,0,0-1.088-.452,1.347,1.347,0,0,0-1.1.454,2.016,2.016,0,0,0-.377,1.319m11.174-2.155v2.8a1.519,1.519,0,0,1-.45,1.162,1.731,1.731,0,0,1-1.237.423,1.657,1.657,0,0,1-1.217-.426,1.573,1.573,0,0,1-.43-1.17v-2.787h.506v2.82a1.1,1.1,0,0,0,.3.831,1.206,1.206,0,0,0,.876.289,1.161,1.161,0,0,0,.849-.291,1.115,1.115,0,0,0,.3-.833v-2.816Zm8,4.322h-.578l-2.38-3.627h-.025q.048.639.049,1.171v2.456h-.468v-4.322h.571l2.375,3.613h.023c0-.054-.012-.225-.026-.514s-.019-.494-.014-.619v-2.48h.473Zm8.116-2.2a2.174,2.174,0,0,1-.585,1.636,2.333,2.333,0,0,1-1.686.566h-1.206v-4.322h1.334a2.145,2.145,0,0,1,1.579.56,2.1,2.1,0,0,1,.564,1.56m-.537.018a1.509,1.509,0,0,0-1.7-1.7h-.736v3.45h.617a1.884,1.884,0,0,0,1.361-.442,1.736,1.736,0,0,0,.456-1.306m7.566,2.184-.542-1.374H111.9l-.536,1.374h-.512l1.724-4.34H113l1.714,4.34Zm-.7-1.828-.507-1.338c-.065-.17-.133-.377-.2-.624a5.252,5.252,0,0,1-.189.624l-.512,1.338Zm6.179,1.828h-.507v-3.874h-1.38v-.448h3.264v.448h-1.378Zm5.477-4.322h.506v4.322h-.506Zm8.926,2.157a2.374,2.374,0,0,1-.529,1.632,2.15,2.15,0,0,1-2.957.009,2.382,2.382,0,0,1-.524-1.647,2.351,2.351,0,0,1,.526-1.636,1.9,1.9,0,0,1,1.49-.581,1.864,1.864,0,0,1,1.467.591,2.367,2.367,0,0,1,.528,1.632m-3.473,0a2.034,2.034,0,0,0,.377,1.331,1.55,1.55,0,0,0,2.189,0,2.075,2.075,0,0,0,.37-1.334,2.034,2.034,0,0,0-.369-1.322,1.318,1.318,0,0,0-1.089-.452,1.347,1.347,0,0,0-1.1.454,2.016,2.016,0,0,0-.377,1.319m11.288,2.167h-.578l-2.38-3.627h-.025q.048.639.048,1.171v2.456h-.467v-4.322h.571l2.375,3.613h.023c0-.054-.012-.225-.026-.514s-.019-.494-.015-.619v-2.48h.474Z" transform="translate(-11.769 -37.227)" fill="#0085d3" fill-rule="evenodd"/>
  </g>
</svg>
