<svg xmlns="http://www.w3.org/2000/svg" width="30.613" height="30.612" viewBox="0 0 30.613 30.612">
  <g id="Group_6558" data-name="Group 6558" transform="translate(-1291 -4145.386)">
    <path id="Path_7260" data-name="Path 7260" d="M30.613,20.692a15.306,15.306,0,1,0-17.7,15.12v-10.7H9.028V20.692h3.886V17.32c0-3.836,2.285-5.955,5.781-5.955a23.546,23.546,0,0,1,3.426.3v3.767h-1.93a2.212,2.212,0,0,0-2.494,2.39v2.871h4.245l-.679,4.425H17.7v10.7a15.31,15.31,0,0,0,12.915-15.12" transform="translate(1291 4140)" fill="#4676ed"/>
    <path id="Path_7261" data-name="Path 7261" d="M52.051,45.5l.679-4.425H48.485V38.209a2.212,2.212,0,0,1,2.494-2.391h1.93V32.052a23.528,23.528,0,0,0-3.426-.3c-3.5,0-5.781,2.119-5.781,5.955V41.08H39.815V45.5H43.7V56.2a15.474,15.474,0,0,0,4.783,0V45.5Z" transform="translate(1260.214 4119.612)" fill="#fff"/>
  </g>
</svg>
