<svg xmlns="http://www.w3.org/2000/svg" width="30.61" height="30.61" viewBox="0 0 30.61 30.61">
  <g id="Group_6556" data-name="Group 6556" transform="translate(-1380.495 -4091.404)">
    <g id="Group_6555" data-name="Group 6555" transform="translate(1380.495 4091.404)">
      <path id="Path_7256" data-name="Path 7256" d="M703.1,217.709A15.3,15.3,0,1,1,687.8,202.4a15.305,15.305,0,0,1,15.3,15.305" transform="translate(-672.495 -202.404)" fill="#4467ad"/>
      <path id="Path_7257" data-name="Path 7257" d="M733.216,254.27c.271-.3.495-.614.773-.877a4.243,4.243,0,0,1,3.052-1.2,7.068,7.068,0,0,1,1.92.234,3.752,3.752,0,0,1,2.664,2.8,11.745,11.745,0,0,1,.355,3.21c0,2.282-.007,4.563,0,6.844,0,.214-.059.27-.27.268q-1.763-.014-3.526,0c-.207,0-.252-.062-.251-.258q.01-3.256,0-6.513a5.856,5.856,0,0,0-.189-1.617,1.818,1.818,0,0,0-2-1.417,2.185,2.185,0,0,0-2.3,2.181,8.115,8.115,0,0,0-.062,1.018c0,2.111,0,4.223.006,6.334,0,.211-.052.273-.267.271q-1.776-.016-3.552,0c-.19,0-.245-.05-.244-.242q.008-6.27,0-12.54c0-.207.068-.255.263-.253q1.686.012,3.373,0c.207,0,.26.065.256.261-.011.5,0,1,0,1.5" transform="translate(-717.075 -241.506)" fill="#fefefe"/>
    </g>
    <path id="Path_7258" data-name="Path 7258" d="M706.369,260.037c0,2.068,0,4.136,0,6.2,0,.23-.056.3-.294.3-1.175-.013-2.35-.01-3.525,0-.188,0-.245-.046-.245-.24q.009-6.28,0-12.561c0-.173.042-.235.226-.234,1.192.008,2.384.01,3.576,0,.229,0,.26.086.26.283q-.009,3.127,0,6.255" transform="translate(684.87 3848.892)" fill="#fefefe"/>
    <path id="Path_7259" data-name="Path 7259" d="M705.732,229.34A2.347,2.347,0,1,1,703.39,227a2.355,2.355,0,0,1,2.343,2.335" transform="translate(685.843 3869.904)" fill="#fefefe"/>
  </g>
</svg>
