<svg xmlns="http://www.w3.org/2000/svg" width="30.611" height="30.611" viewBox="0 0 30.611 30.611">
  <g id="Group_6557" data-name="Group 6557" transform="translate(-1604.66 -3894.386)">
    <path id="Path_7252" data-name="Path 7252" d="M927.271,20.692A15.306,15.306,0,1,1,911.966,5.386a15.306,15.306,0,0,1,15.306,15.306" transform="translate(708 3889)" fill="#5a99ec" fill-rule="evenodd"/>
    <path id="Path_7253" data-name="Path 7253" d="M929.276,56.86A11.485,11.485,0,0,0,940.84,45.3q0-.264-.012-.525a8.275,8.275,0,0,0,2.027-2.1,8.112,8.112,0,0,1-2.334.64,4.079,4.079,0,0,0,1.787-2.248,8.148,8.148,0,0,1-2.581.987,4.068,4.068,0,0,0-6.926,3.706,11.538,11.538,0,0,1-8.377-4.246,4.067,4.067,0,0,0,1.258,5.426,4.036,4.036,0,0,1-1.841-.509c0,.017,0,.034,0,.052a4.066,4.066,0,0,0,3.26,3.984,4.06,4.06,0,0,1-1.835.07,4.069,4.069,0,0,0,3.8,2.823,8.155,8.155,0,0,1-5.048,1.74,8.253,8.253,0,0,1-.969-.056,11.5,11.5,0,0,0,6.23,1.826" transform="translate(687.597 3861.646)" fill="#fff"/>
  </g>
</svg>
