<svg xmlns="http://www.w3.org/2000/svg" width="30.607" height="30.607" viewBox="0 0 30.607 30.607">
  <g id="Group_6552" data-name="Group 6552" transform="translate(-1156.33 -4091.404)">
    <path id="Path_7254" data-name="Path 7254" d="M478.937,217.708a15.3,15.3,0,1,1-15.3-15.3,15.3,15.3,0,0,1,15.3,15.3" transform="translate(708 3889)" fill="#da0000"/>
    <path id="Path_7255" data-name="Path 7255" d="M490.808,240.634a2.555,2.555,0,0,0-1.8-1.8c-1.591-.426-7.972-.426-7.972-.426s-6.381,0-7.972.426a2.555,2.555,0,0,0-1.8,1.8,28.493,28.493,0,0,0,0,9.822,2.555,2.555,0,0,0,1.8,1.8c1.591.426,7.972.426,7.972.426s6.381,0,7.972-.426a2.555,2.555,0,0,0,1.8-1.8,28.489,28.489,0,0,0,0-9.822m-11.816,7.972v-6.121l5.3,3.061Z" transform="translate(690.601 3861.162)" fill="#fff"/>
  </g>
</svg>
